<?xml version="1.0" encoding="utf-8"?>
<!-- Generator: Adobe Illustrator 18.0.0, SVG Export Plug-In . SVG Version: 6.00 Build 0)  -->
<!DOCTYPE svg PUBLIC "-//W3C//DTD SVG 1.1//EN" "http://www.w3.org/Graphics/SVG/1.1/DTD/svg11.dtd">
<svg version="1.1" id="Layer_1" xmlns="http://www.w3.org/2000/svg" xmlns:xlink="http://www.w3.org/1999/xlink" x="0px" y="0px"
	 viewBox="0 0 412 792" enable-background="new 0 0 412 792" xml:space="preserve">
<g>
	<path fill="#0A0A0A" d="M57.1,740c-4.2-3.3-10.4-9-12.9-13.6c-11.2-20.8-15.3-43.1-15.3-66.7c-0.3-129.1-1-258.3-1.6-387.4
		c-0.2-51.1-0.6-102.3-0.5-153.4c0-11.7,1.1-23.4,3-34.9C34.2,57,50,39.2,75.6,29.6c16.7-6.3,34-8.4,51.5-10.2
		c56.4-5.7,112.8-5.6,169,1.6c16.3,2.1,32,6.5,47,13.5c17.3,8.1,28.8,21.3,34.8,39.5c6,18,7.7,36.8,8,55.5
		c0.5,38.2,0.2,76.4,0.3,114.7c0,50.4-1.5,98.9-1.5,149.4c0.1,0.7,0.1,0.7,0.1,1.9c0,75.8,0,151.5,0,227.3c0,17.4,0.1,34.8-0.7,52.2
		c-1,24.4-8.3,46.4-27,63.3c-14.4,13.1-27.9,18.4-47.8,22.6c-12.1,2.6-17.2,3.3-38.3,5.4c-44,4-64.7,5.4-93.3,4.1
		c-19-1.3-35.6-1.8-53.1-4.1C100,763,99,760.4,74.8,751.9 M43.5,63.1c-0.2-0.2-0.4-0.4-0.7-0.5c-1.1,2.1-2.4,4.1-3.4,6.2
		c-7.6,16-9,33.2-9.1,50.3c-0.3,46.8,0.3,93.6,0.5,140.5c0.3,63.9,0.7,127.7,0.9,191.6c0.2,61.6,0.2,123.3,0.5,184.9
		c0.1,15-0.5,30.1,1.3,44.9c4.6,37.6,26.5,61.7,61.6,74.2c20.2,7.2,41.5,7.8,62.6,9.4c34.6,2.7,69.2,2.2,103.6-1.9
		c21-2.5,42.1-4.2,62.3-11.3c24.5-8.6,43.4-23.6,51.1-49.2c3.8-12.7,6.7-26.2,6.7-39.4c1.1-171.8,1.8-343.6,2.1-515.5
		c0-18.1-2.6-36.4-4.9-54.4c-3.2-24.5-15.4-43.4-38.8-53.1c-10.7-4.5-22.2-7.3-33.4-10.6c-4.2-1.2-8.6-1.6-13-2.3
		c0.4,1.1,1,1.3,1.6,1.4c13.3,3.9,26.9,7,39.9,11.8c13.4,4.9,24.3,13.6,30.7,26.9c1,2.1,1.3,4.5,1.9,6.7c-0.6,0.3-1.3,0.7-1.9,1
		c-2.4-2.3-5-4.3-7-6.9c-15.7-19.4-35.1-31.4-60.3-35.3c-38.7-6.1-77.5-9.5-116.7-7.9c-28.5,1.1-56.5,5-84.3,11.3
		c-18.2,4.2-34.2,11.6-45.7,26.7c-0.5,0.6-0.8,1.4-1.7,2.9c1.7-0.9,2.7-1.4,3.6-1.9c-2.1,3.9-4.7,7.4-7.6,10.4c-1,1-3,1-4.5,1.4
		c-0.3-1.6-1.2-3.3-0.8-4.7C41.2,68.2,42.5,65.7,43.5,63.1z M164.3,22c0,0.2,0,0.4,0,0.6c20.5,0,41,0,61.5,0c0-0.2,0-0.4,0-0.6
		C205.3,22,184.8,22,164.3,22z"/>
	<path fill="#232323" d="M43.5,63.1c-1,2.6-2.3,5.1-2.9,7.7c-0.3,1.4,0.5,3.1,0.8,4.7c1.5-0.4,3.6-0.4,4.5-1.4
		c2.9-3.1,5.5-6.5,7.6-10.4c-0.9,0.5-1.8,1-3.6,1.9c0.9-1.5,1.2-2.2,1.7-2.9C63.4,47.6,79.4,40.2,97.5,36
		c27.8-6.4,55.8-10.2,84.3-11.3c39.2-1.6,78,1.8,116.7,7.9c25.2,4,44.6,15.9,60.3,35.3c2,2.5,4.7,4.6,7,6.9c0.6-0.3,1.3-0.7,1.9-1
		c-0.6-2.3-0.9-4.7-1.9-6.7c-6.4-13.3-17.3-22-30.7-26.9c-13-4.8-26.6-7.9-39.9-11.8c-0.6-0.2-1.2-0.3-1.6-1.4
		c4.3,0.8,8.8,1.1,13,2.3c11.2,3.3,22.7,6.1,33.4,10.6c23.4,9.8,35.6,28.6,38.8,53.1c2.4,18,5,36.3,4.9,54.4
		c-0.3,171.8-1,343.6-2.1,515.5c-0.1,13.2-2.9,26.7-6.7,39.4c-7.7,25.5-26.6,40.5-51.1,49.2c-20.2,7.1-41.3,8.8-62.3,11.3
		c-34.5,4.1-69.1,4.7-103.6,1.9c-21-1.7-42.4-2.3-62.6-9.4C60,742.7,38.2,718.6,33.6,681c-1.8-14.8-1.2-29.9-1.3-44.9
		C32,574.5,32,512.8,31.8,451.2c-0.2-63.9-0.6-127.7-0.9-191.6c-0.2-46.8-0.8-93.6-0.5-140.5c0.1-17.1,1.5-34.4,9.1-50.3
		c1-2.1,2.3-4.2,3.4-6.2C43.1,62.8,43.3,63,43.5,63.1z M46,377.7c-0.7,0-1.4,0-2.1,0c0,85.1,0,170.1,0,255.2
		c0,11.2,2.8,21.5,9.4,30.5c8.7,11.9,18.8,22.6,31.5,30.1c7.2,4.2,15.1,8.7,23.1,9.7c26.8,3.4,53.7,6.6,80.6,7.3
		c26.4,0.7,53-0.9,79.4-2.9c15.7-1.2,31.6-3.7,46.6-8.2c26.2-7.7,53.8-34,53.5-71.6c-1.1-161-0.9-322-1.6-483
		c-0.1-16.4-1.9-33-4.2-49.3c-2.6-18.4-10.6-33.9-29.2-41.2c-6.5-2.6-13.2-4.9-20-6.6c-29.6-7.6-59.9-8.8-90.1-9
		C193,38.6,163,40.3,133.2,42c-15.7,0.9-31.4,2.8-46.8,7.4c-21.1,6.4-34.6,19.4-37.2,41.9c-1.6,13.6-3,27.4-3,41.1
		C45.9,214.1,46,295.9,46,377.7z"/>
	<path fill="#232323" d="M164.3,22c20.5,0,41,0,61.5,0c0,0.2,0,0.4,0,0.6c-20.5,0-41,0-61.5,0C164.3,22.3,164.3,22.1,164.3,22z"/>
	<path fill="#464749" d="M46,377.7c0-81.8-0.1-163.6,0.1-245.3c0-13.7,1.4-27.5,3-41.1c2.6-22.4,16.1-35.4,37.2-41.9
		c15.3-4.7,31-6.5,46.8-7.4c29.9-1.7,59.8-3.3,89.7-3.1c30.2,0.2,60.6,1.4,90.1,9c6.8,1.7,13.5,4,20,6.6
		c18.7,7.3,26.6,22.8,29.2,41.2c2.3,16.3,4.1,32.8,4.2,49.3c0.7,161,0.6,322,1.6,483c0.2,37.5-27.3,63.9-53.5,71.6
		c-15.1,4.4-30.9,7-46.6,8.2c-26.4,2-52.9,3.6-79.4,2.9c-26.9-0.7-53.8-4-80.6-7.3c-8-1-16-5.5-23.1-9.7
		c-12.8-7.5-22.8-18.3-31.5-30.1c-6.6-9-9.4-19.3-9.4-30.5c0-85.1,0-170.1,0-255.2C44.6,377.7,45.3,377.7,46,377.7z M261.9,49.5
		c-9.4-5.4-104.2-5.1-111.3,0C188.1,49.5,225,49.5,261.9,49.5z M203.9,690.9c0-0.6,0.1-1.2,0.1-1.8c7.9,0,15.9,0.6,23.7-0.2
		c10.2-1.1,20.5-2.5,30.4-5.2c7.3-2,6-3.1,5.8-14.4c-0.1-4.8-4.2-5.9-8-6.6c-3-0.5-6.2-0.4-9.3-0.4c-30-0.2-59.9-0.3-89.9-0.5
		c-8.3,0-13.6,2.8-14.1,7.5c-1.3,10.9,0.2,13,11.1,16c1,0.3,2,0.6,3,0.7C172.5,687.7,188.2,689.3,203.9,690.9z M317.8,675.4
		c3.5,1.4,5,0.3,4.9-3.3c-0.2-6.4-3.6-10.2-10.1-10.6c-3.6-0.2-7.2-0.2-10.8-0.1c-9.2,0.3-12.7,4.8-10.6,16.1
		c1.8-2.3,2.9-3.5,3.7-4.8c0.4-0.7-0.1-1.8,0.2-2.5c3-7.6,9.7-3.7,14.8-4.4c3.7-0.5,6.9,0.7,7.4,5.2
		C317.5,672.4,317.6,674,317.8,675.4z M116.2,677.1c2-1.5,4-2.1,4.3-3.3c1.7-5.9-2.3-11.6-8.5-12.1c-4.8-0.4-9.6-0.3-14.4,0
		c-5.9,0.4-9.2,4.2-9,10.2c0.1,1.3,1.2,2.6,1.9,4c0.8-1.2,2.3-2.3,2.4-3.6c0.4-5,3.1-6.9,7.8-6.7c1.5,0.1,3.1,0,4.6,0
		C114.6,665.6,115.2,666.1,116.2,677.1z M306.2,674.8c2,0,4.1,0.2,6.1-0.1c0.9-0.1,1.7-1.1,2.5-1.7c-0.7-0.8-1.4-2.1-2.1-2.2
		c-4.4-0.2-8.8-0.2-13.3,0c-0.7,0-1.3,1.4-2,2.2c0.7,0.6,1.3,1.5,2,1.6C301.7,674.9,304,674.8,306.2,674.8z M218.8,41
		c-0.2,0.1-0.3,0.1-0.5,0.2c10.4,0,20.9,0,31.3,0c0-0.1,0-0.1,0-0.2C239.3,41,229.1,41,218.8,41z M195.4,41.3c0-0.1,0-0.2,0.1-0.4
		c-10.4,0-20.9,0-31.3,0c0,0.1,0,0.2,0,0.4C174.6,41.3,185,41.3,195.4,41.3z"/>
	<path fill="#3C3D3F" d="M179.8,41L43.9,602.8c0,0-21.1,85.9,72.9,101.5c265.6,44,251-69.5,251-69.5s-2.9-349.3-1.4-489.9
		c0.6-59.4,0.4-84.1-58.1-97.4C252.9,35,179.8,41,179.8,41z"/>
	<path fill="#5B6675" d="M317.8,675.4c-0.1-1.5-0.3-3-0.4-4.5c-0.5-4.5-3.8-5.7-7.4-5.2c-5.1,0.7-11.8-3.1-14.8,4.4
		c-0.3,0.8,0.9,4.8,0.3,5.2c-2.1,1.3-1.7,1.2-4.2-0.1c-2.1-11.3,1.4-13.6,10.6-13.8c3.6-0.1,7.2-0.1,10.8,0.1
		c6.5,0.4,10,4.2,10.1,10.6C322.8,675.7,321.3,676.8,317.8,675.4z"/>
	<path fill="#5B6675" d="M116.4,674.7c-1.1-11-1.8-9.1-11.1-9.1c-1.5,0-3.1,0-4.6,0c-4.7-0.2-7.4,1.7-7.8,6.7
		c-0.1,1.2-1,4.3-2.4,4.2c-1.5-0.1-2.5-3.3-2.5-4.6c-0.2-6,3.7-9.8,9.6-10.2c4.8-0.3,9.6-0.3,14.4,0c6.3,0.5,10.2,6.1,8.5,12.1
		C120.2,674.9,118.2,677.5,116.4,674.7z"/>
	<path fill="#5B6675" d="M306.2,674.8c-2.2,0-4.4,0.1-6.6-0.1c-0.7-0.1-1.4-1.1-2-1.6c0.7-0.8,1.3-2.2,2-2.2c4.4-0.2,8.8-0.2,13.3,0
		c0.7,0,1.4,1.4,2.1,2.2c-0.8,0.6-1.6,1.6-2.5,1.7C310.3,675,308.2,674.8,306.2,674.8z"/>
	<path fill="#464749" d="M218.8,41c10.3,0,20.5,0,30.8,0c0,0.1,0,0.1,0,0.2c-10.4,0-20.9,0-31.3,0C218.5,41.2,218.6,41.1,218.8,41z"
		/>
	<path fill="#464749" d="M195.4,41.3c-10.4,0-20.8,0-31.3,0c0-0.1,0-0.2,0-0.4c10.4,0,20.9,0,31.3,0
		C195.4,41.1,195.4,41.2,195.4,41.3z"/>
	<path fill="#0A0A0A" d="M203.1,663.5c16.2,0,32.3-0.1,48.5,0c9.1,0.1,11.5,2.9,11.5,11.8c0,3.9-1.6,6.4-5.2,7.2
		c-7,1.6-14,3.5-21.2,4.2c-26.8,2.8-53.5,2.7-80.2-2.2c-1.9-0.3-3.7-0.8-5.5-1.4c-7.1-2.3-8.7-5-7.6-12.9c0.6-4.2,4.5-7,10.6-7
		c16.3-0.1,32.7,0,49,0C203.1,663.4,203.1,663.5,203.1,663.5z M245.1,673.4c-26.7,0-52.8,0-79.3,0
		C168.6,676.8,241.5,676.8,245.1,673.4z"/>
	<path fill="#FFFFFF" d="M245.1,673.4c-3.7,3.5-76.5,3.4-79.3,0C192.3,673.4,218.4,673.4,245.1,673.4z"/>
	<text transform="matrix(1 0 0 1 165.8501 113.8965)" fill="#9E9E9F" font-family="'MyriadPro-Semibold'" font-size="28.9167">NOKIA</text>
	<path fill="#2D2D2D" d="M312.8,80.8c-3.6,0-6.6,3-6.6,6.6s3,6.6,6.6,6.6s6.6-3,6.6-6.6S316.4,80.8,312.8,80.8z M312.8,90.4
		c-1.5,0-3-1.5-3-3c0-1.5,1.5-3,3-3s3,1.5,3,3C315.9,88.9,314.3,90.4,312.8,90.4z"/>
	<rect x="58.5" y="129.7" opacity="0.65" fill="#2D2D2D" width="294" height="490"/>
	<path fill="#2D2D2D" d="M265,69.3H149c-1.6,0-2.9-1.3-2.9-2.9V43.8c0-1.6,1.3-2.9,2.9-2.9h116c1.6,0,2.9,1.3,2.9,2.9v22.6
		C267.8,68,266.5,69.3,265,69.3z"/>
	<path fill="#6C7582" d="M261.9,49.5c-36.9,0-73.8,0-111.3,0C157.7,44.4,252.5,44.1,261.9,49.5z"/>
	<line fill="none" stroke="#000000" stroke-miterlimit="10" x1="368.1" y1="627.9" x2="42" y2="627.9"/>
</g>
</svg>
